<mxfile host="app.diagrams.net" modified="2024-06-04T20:04:04.856Z" agent="Mozilla/5.0 (Windows NT 10.0; Win64; x64; rv:126.0) Gecko/20100101 Firefox/126.0" etag="RlpKw-8W2ykp_jDPDF1K" version="24.4.13" type="device">
  <diagram name="Page-1" id="AscvpKJkDor2Ba45mDUg">
    <mxGraphModel dx="1434" dy="881" grid="1" gridSize="10" guides="1" tooltips="1" connect="1" arrows="1" fold="1" page="1" pageScale="1" pageWidth="827" pageHeight="1169" math="0" shadow="0">
      <root>
        <mxCell id="0" />
        <mxCell id="1" parent="0" />
        <mxCell id="_LUyKltJJyNUMUL_nIZ1-7" style="edgeStyle=orthogonalEdgeStyle;rounded=0;orthogonalLoop=1;jettySize=auto;html=1;exitX=0.5;exitY=1;exitDx=0;exitDy=0;entryX=0.5;entryY=0;entryDx=0;entryDy=0;" edge="1" parent="1" source="_LUyKltJJyNUMUL_nIZ1-8" target="_LUyKltJJyNUMUL_nIZ1-22">
          <mxGeometry relative="1" as="geometry">
            <mxPoint x="374" y="160" as="sourcePoint" />
          </mxGeometry>
        </mxCell>
        <mxCell id="_LUyKltJJyNUMUL_nIZ1-8" value="" style="shape=loopLimit;whiteSpace=wrap;html=1;" vertex="1" parent="1">
          <mxGeometry x="368" y="90" width="100" height="50" as="geometry" />
        </mxCell>
        <mxCell id="_LUyKltJJyNUMUL_nIZ1-9" value="" style="shape=loopLimit;whiteSpace=wrap;html=1;rotation=0;flipH=0;flipV=1;" vertex="1" parent="1">
          <mxGeometry x="368" y="620" width="100" height="50" as="geometry" />
        </mxCell>
        <mxCell id="_LUyKltJJyNUMUL_nIZ1-10" style="edgeStyle=orthogonalEdgeStyle;rounded=0;orthogonalLoop=1;jettySize=auto;html=1;exitX=0;exitY=0.5;exitDx=0;exitDy=0;" edge="1" parent="1" source="_LUyKltJJyNUMUL_nIZ1-22" target="_LUyKltJJyNUMUL_nIZ1-40">
          <mxGeometry relative="1" as="geometry">
            <mxPoint x="34" y="260" as="targetPoint" />
            <Array as="points">
              <mxPoint x="54" y="210" />
              <mxPoint x="54" y="690" />
              <mxPoint x="418" y="690" />
            </Array>
          </mxGeometry>
        </mxCell>
        <mxCell id="_LUyKltJJyNUMUL_nIZ1-11" value="&lt;div&gt;выход или&lt;br&gt;&lt;/div&gt;&lt;div&gt;переполнение&lt;/div&gt;" style="edgeLabel;html=1;align=center;verticalAlign=middle;resizable=0;points=[];" vertex="1" connectable="0" parent="_LUyKltJJyNUMUL_nIZ1-10">
          <mxGeometry x="-0.8077" y="2" relative="1" as="geometry">
            <mxPoint x="12" y="-32" as="offset" />
          </mxGeometry>
        </mxCell>
        <mxCell id="_LUyKltJJyNUMUL_nIZ1-12" style="edgeStyle=orthogonalEdgeStyle;rounded=0;orthogonalLoop=1;jettySize=auto;html=1;entryX=0.5;entryY=0;entryDx=0;entryDy=0;" edge="1" parent="1" source="_LUyKltJJyNUMUL_nIZ1-22" target="_LUyKltJJyNUMUL_nIZ1-29">
          <mxGeometry relative="1" as="geometry">
            <Array as="points">
              <mxPoint x="274" y="270" />
              <mxPoint x="159" y="270" />
            </Array>
          </mxGeometry>
        </mxCell>
        <mxCell id="_LUyKltJJyNUMUL_nIZ1-13" value="Флаг ввода" style="edgeLabel;html=1;align=center;verticalAlign=middle;resizable=0;points=[];" vertex="1" connectable="0" parent="_LUyKltJJyNUMUL_nIZ1-12">
          <mxGeometry x="-0.0667" relative="1" as="geometry">
            <mxPoint x="-22" y="-20" as="offset" />
          </mxGeometry>
        </mxCell>
        <mxCell id="_LUyKltJJyNUMUL_nIZ1-20" style="edgeStyle=orthogonalEdgeStyle;rounded=0;orthogonalLoop=1;jettySize=auto;html=1;exitX=1;exitY=0.5;exitDx=0;exitDy=0;" edge="1" parent="1" source="_LUyKltJJyNUMUL_nIZ1-22" target="_LUyKltJJyNUMUL_nIZ1-38">
          <mxGeometry relative="1" as="geometry">
            <mxPoint x="644.0000000000002" y="220" as="sourcePoint" />
          </mxGeometry>
        </mxCell>
        <mxCell id="_LUyKltJJyNUMUL_nIZ1-21" value="Флаг отрисовки&lt;div&gt;&lt;div&gt;нового элемента&lt;br&gt;&lt;/div&gt;&lt;/div&gt;" style="edgeLabel;html=1;align=center;verticalAlign=middle;resizable=0;points=[];" vertex="1" connectable="0" parent="_LUyKltJJyNUMUL_nIZ1-20">
          <mxGeometry x="-0.2597" y="-2" relative="1" as="geometry">
            <mxPoint x="-13" y="-32" as="offset" />
          </mxGeometry>
        </mxCell>
        <mxCell id="_LUyKltJJyNUMUL_nIZ1-77" style="edgeStyle=orthogonalEdgeStyle;rounded=0;orthogonalLoop=1;jettySize=auto;html=1;exitX=1;exitY=1;exitDx=0;exitDy=0;entryX=0.5;entryY=0;entryDx=0;entryDy=0;" edge="1" parent="1" source="_LUyKltJJyNUMUL_nIZ1-22" target="_LUyKltJJyNUMUL_nIZ1-76">
          <mxGeometry relative="1" as="geometry" />
        </mxCell>
        <mxCell id="_LUyKltJJyNUMUL_nIZ1-107" value="&lt;div&gt;Флаг отрисовки&lt;/div&gt;&lt;div&gt;движущегося&lt;/div&gt;элемента" style="edgeLabel;html=1;align=center;verticalAlign=middle;resizable=0;points=[];" vertex="1" connectable="0" parent="_LUyKltJJyNUMUL_nIZ1-77">
          <mxGeometry x="0.2702" y="3" relative="1" as="geometry">
            <mxPoint x="2" y="-26" as="offset" />
          </mxGeometry>
        </mxCell>
        <mxCell id="_LUyKltJJyNUMUL_nIZ1-92" style="edgeStyle=orthogonalEdgeStyle;rounded=0;orthogonalLoop=1;jettySize=auto;html=1;exitX=0.5;exitY=1;exitDx=0;exitDy=0;" edge="1" parent="1" source="_LUyKltJJyNUMUL_nIZ1-22" target="_LUyKltJJyNUMUL_nIZ1-91">
          <mxGeometry relative="1" as="geometry" />
        </mxCell>
        <mxCell id="_LUyKltJJyNUMUL_nIZ1-93" value="Флаг сдвига" style="edgeLabel;html=1;align=center;verticalAlign=middle;resizable=0;points=[];" vertex="1" connectable="0" parent="_LUyKltJJyNUMUL_nIZ1-92">
          <mxGeometry x="0.2031" y="1" relative="1" as="geometry">
            <mxPoint x="14" y="-10" as="offset" />
          </mxGeometry>
        </mxCell>
        <mxCell id="_LUyKltJJyNUMUL_nIZ1-22" value="Выставленный флаг" style="rhombus;whiteSpace=wrap;html=1;" vertex="1" parent="1">
          <mxGeometry x="253" y="180" width="330" height="60" as="geometry" />
        </mxCell>
        <mxCell id="_LUyKltJJyNUMUL_nIZ1-113" style="edgeStyle=orthogonalEdgeStyle;rounded=0;orthogonalLoop=1;jettySize=auto;html=1;exitX=0.5;exitY=1;exitDx=0;exitDy=0;entryX=0.5;entryY=0;entryDx=0;entryDy=0;" edge="1" parent="1" source="_LUyKltJJyNUMUL_nIZ1-29" target="_LUyKltJJyNUMUL_nIZ1-110">
          <mxGeometry relative="1" as="geometry" />
        </mxCell>
        <mxCell id="_LUyKltJJyNUMUL_nIZ1-29" value="&lt;div&gt;Ввод&amp;nbsp;&lt;/div&gt;&lt;div&gt;пользователем&lt;/div&gt;" style="shape=parallelogram;perimeter=parallelogramPerimeter;whiteSpace=wrap;html=1;fixedSize=1;" vertex="1" parent="1">
          <mxGeometry x="99" y="290" width="120" height="52.5" as="geometry" />
        </mxCell>
        <mxCell id="_LUyKltJJyNUMUL_nIZ1-68" style="edgeStyle=orthogonalEdgeStyle;rounded=0;orthogonalLoop=1;jettySize=auto;html=1;exitX=0.5;exitY=1;exitDx=0;exitDy=0;entryX=0.5;entryY=0;entryDx=0;entryDy=0;" edge="1" parent="1" source="_LUyKltJJyNUMUL_nIZ1-38" target="_LUyKltJJyNUMUL_nIZ1-65">
          <mxGeometry relative="1" as="geometry">
            <mxPoint x="434.0000000000002" y="400" as="sourcePoint" />
            <Array as="points">
              <mxPoint x="754" y="370" />
              <mxPoint x="754" y="370" />
            </Array>
          </mxGeometry>
        </mxCell>
        <mxCell id="_LUyKltJJyNUMUL_nIZ1-38" value="Отрисовка нового элемента" style="rounded=0;whiteSpace=wrap;html=1;" vertex="1" parent="1">
          <mxGeometry x="694" y="297.5" width="120" height="52.5" as="geometry" />
        </mxCell>
        <mxCell id="_LUyKltJJyNUMUL_nIZ1-123" style="edgeStyle=orthogonalEdgeStyle;rounded=0;orthogonalLoop=1;jettySize=auto;html=1;exitX=0.5;exitY=1;exitDx=0;exitDy=0;entryX=0.5;entryY=0;entryDx=0;entryDy=0;" edge="1" parent="1" source="_LUyKltJJyNUMUL_nIZ1-39" target="_LUyKltJJyNUMUL_nIZ1-8">
          <mxGeometry relative="1" as="geometry" />
        </mxCell>
        <mxCell id="_LUyKltJJyNUMUL_nIZ1-39" value="Игровой цикл" style="rounded=1;whiteSpace=wrap;html=1;" vertex="1" parent="1">
          <mxGeometry x="358" y="10" width="120" height="60" as="geometry" />
        </mxCell>
        <mxCell id="_LUyKltJJyNUMUL_nIZ1-40" value="Завершение игры" style="rounded=1;whiteSpace=wrap;html=1;" vertex="1" parent="1">
          <mxGeometry x="358" y="710" width="120" height="60" as="geometry" />
        </mxCell>
        <mxCell id="_LUyKltJJyNUMUL_nIZ1-48" style="edgeStyle=orthogonalEdgeStyle;rounded=0;orthogonalLoop=1;jettySize=auto;html=1;exitX=0.5;exitY=1;exitDx=0;exitDy=0;" edge="1" parent="1" source="_LUyKltJJyNUMUL_nIZ1-114" target="_LUyKltJJyNUMUL_nIZ1-9">
          <mxGeometry relative="1" as="geometry">
            <mxPoint x="134" y="522.5" as="sourcePoint" />
            <Array as="points">
              <mxPoint x="159" y="550" />
              <mxPoint x="134" y="550" />
              <mxPoint x="134" y="600" />
              <mxPoint x="418" y="600" />
            </Array>
          </mxGeometry>
        </mxCell>
        <mxCell id="_LUyKltJJyNUMUL_nIZ1-115" value="Нет" style="edgeLabel;html=1;align=center;verticalAlign=middle;resizable=0;points=[];" vertex="1" connectable="0" parent="_LUyKltJJyNUMUL_nIZ1-48">
          <mxGeometry x="-0.8548" relative="1" as="geometry">
            <mxPoint y="-9" as="offset" />
          </mxGeometry>
        </mxCell>
        <mxCell id="_LUyKltJJyNUMUL_nIZ1-56" style="edgeStyle=orthogonalEdgeStyle;rounded=0;orthogonalLoop=1;jettySize=auto;html=1;exitX=0.5;exitY=1;exitDx=0;exitDy=0;entryX=0.458;entryY=-0.015;entryDx=0;entryDy=0;entryPerimeter=0;" edge="1" parent="1" source="_LUyKltJJyNUMUL_nIZ1-49" target="_LUyKltJJyNUMUL_nIZ1-55">
          <mxGeometry relative="1" as="geometry" />
        </mxCell>
        <mxCell id="_LUyKltJJyNUMUL_nIZ1-58" value="Нет" style="edgeLabel;html=1;align=center;verticalAlign=middle;resizable=0;points=[];" vertex="1" connectable="0" parent="_LUyKltJJyNUMUL_nIZ1-56">
          <mxGeometry x="-0.3333" y="1" relative="1" as="geometry">
            <mxPoint as="offset" />
          </mxGeometry>
        </mxCell>
        <mxCell id="_LUyKltJJyNUMUL_nIZ1-62" style="edgeStyle=orthogonalEdgeStyle;rounded=0;orthogonalLoop=1;jettySize=auto;html=1;exitX=0;exitY=0.5;exitDx=0;exitDy=0;" edge="1" parent="1" source="_LUyKltJJyNUMUL_nIZ1-49" target="_LUyKltJJyNUMUL_nIZ1-60">
          <mxGeometry relative="1" as="geometry">
            <Array as="points">
              <mxPoint x="224" y="470" />
              <mxPoint x="224" y="530" />
              <mxPoint x="194" y="530" />
            </Array>
          </mxGeometry>
        </mxCell>
        <mxCell id="_LUyKltJJyNUMUL_nIZ1-63" value="Да" style="edgeLabel;html=1;align=center;verticalAlign=middle;resizable=0;points=[];" vertex="1" connectable="0" parent="_LUyKltJJyNUMUL_nIZ1-62">
          <mxGeometry x="-0.5056" y="-1" relative="1" as="geometry">
            <mxPoint x="-9" y="-21" as="offset" />
          </mxGeometry>
        </mxCell>
        <mxCell id="_LUyKltJJyNUMUL_nIZ1-49" value="&lt;div&gt;Элементу&amp;nbsp;&lt;/div&gt;&lt;div&gt;нашлась ячейка&lt;/div&gt;" style="rhombus;whiteSpace=wrap;html=1;" vertex="1" parent="1">
          <mxGeometry x="234" y="430" width="160" height="80" as="geometry" />
        </mxCell>
        <mxCell id="_LUyKltJJyNUMUL_nIZ1-52" value="" style="endArrow=classic;html=1;rounded=0;exitX=0.291;exitY=0.799;exitDx=0;exitDy=0;entryX=0.5;entryY=0;entryDx=0;entryDy=0;exitPerimeter=0;" edge="1" parent="1" source="_LUyKltJJyNUMUL_nIZ1-22">
          <mxGeometry width="50" height="50" relative="1" as="geometry">
            <mxPoint x="354" y="310" as="sourcePoint" />
            <mxPoint x="314" y="297.5" as="targetPoint" />
            <Array as="points">
              <mxPoint x="349" y="280" />
              <mxPoint x="314" y="280" />
            </Array>
          </mxGeometry>
        </mxCell>
        <mxCell id="_LUyKltJJyNUMUL_nIZ1-53" value="&lt;div&gt;Флаг&lt;/div&gt;&lt;div&gt;добавления&lt;br&gt;&lt;/div&gt;" style="edgeLabel;html=1;align=center;verticalAlign=middle;resizable=0;points=[];" vertex="1" connectable="0" parent="_LUyKltJJyNUMUL_nIZ1-52">
          <mxGeometry x="-0.0279" relative="1" as="geometry">
            <mxPoint x="-40" y="-16" as="offset" />
          </mxGeometry>
        </mxCell>
        <mxCell id="_LUyKltJJyNUMUL_nIZ1-59" style="edgeStyle=orthogonalEdgeStyle;rounded=0;orthogonalLoop=1;jettySize=auto;html=1;exitX=0.5;exitY=1;exitDx=0;exitDy=0;entryX=0.5;entryY=0;entryDx=0;entryDy=0;" edge="1" parent="1" source="_LUyKltJJyNUMUL_nIZ1-54" target="_LUyKltJJyNUMUL_nIZ1-49">
          <mxGeometry relative="1" as="geometry">
            <mxPoint x="314" y="440" as="sourcePoint" />
          </mxGeometry>
        </mxCell>
        <mxCell id="_LUyKltJJyNUMUL_nIZ1-54" value="Добавление элемента" style="shape=process;whiteSpace=wrap;html=1;backgroundOutline=1;" vertex="1" parent="1">
          <mxGeometry x="254" y="297.5" width="120" height="60" as="geometry" />
        </mxCell>
        <mxCell id="_LUyKltJJyNUMUL_nIZ1-57" style="edgeStyle=orthogonalEdgeStyle;rounded=0;orthogonalLoop=1;jettySize=auto;html=1;exitX=0.5;exitY=1;exitDx=0;exitDy=0;entryX=0.5;entryY=0;entryDx=0;entryDy=0;" edge="1" parent="1" source="_LUyKltJJyNUMUL_nIZ1-55" target="_LUyKltJJyNUMUL_nIZ1-9">
          <mxGeometry relative="1" as="geometry">
            <Array as="points">
              <mxPoint x="314" y="600" />
              <mxPoint x="418" y="600" />
            </Array>
          </mxGeometry>
        </mxCell>
        <mxCell id="_LUyKltJJyNUMUL_nIZ1-55" value="Флаг переполнения" style="rounded=0;whiteSpace=wrap;html=1;" vertex="1" parent="1">
          <mxGeometry x="264" y="550" width="110" height="32.5" as="geometry" />
        </mxCell>
        <mxCell id="_LUyKltJJyNUMUL_nIZ1-64" style="edgeStyle=orthogonalEdgeStyle;rounded=0;orthogonalLoop=1;jettySize=auto;html=1;exitX=0.5;exitY=1;exitDx=0;exitDy=0;entryX=0.5;entryY=0;entryDx=0;entryDy=0;" edge="1" parent="1" source="_LUyKltJJyNUMUL_nIZ1-60" target="_LUyKltJJyNUMUL_nIZ1-9">
          <mxGeometry relative="1" as="geometry">
            <Array as="points">
              <mxPoint x="194" y="600" />
              <mxPoint x="418" y="600" />
            </Array>
          </mxGeometry>
        </mxCell>
        <mxCell id="_LUyKltJJyNUMUL_nIZ1-60" value="&lt;div&gt;Флаг отрисовки &lt;br&gt;&lt;/div&gt;&lt;div&gt;нового элемента&lt;br&gt;&lt;/div&gt;" style="rounded=0;whiteSpace=wrap;html=1;" vertex="1" parent="1">
          <mxGeometry x="154" y="557.5" width="100" height="30" as="geometry" />
        </mxCell>
        <mxCell id="_LUyKltJJyNUMUL_nIZ1-70" style="edgeStyle=orthogonalEdgeStyle;rounded=0;orthogonalLoop=1;jettySize=auto;html=1;exitX=0;exitY=0.5;exitDx=0;exitDy=0;entryX=0.5;entryY=0;entryDx=0;entryDy=0;" edge="1" parent="1" source="_LUyKltJJyNUMUL_nIZ1-65" target="_LUyKltJJyNUMUL_nIZ1-9">
          <mxGeometry relative="1" as="geometry">
            <mxPoint x="414" y="640" as="targetPoint" />
            <Array as="points">
              <mxPoint x="654" y="470" />
              <mxPoint x="654" y="600" />
              <mxPoint x="418" y="600" />
            </Array>
          </mxGeometry>
        </mxCell>
        <mxCell id="_LUyKltJJyNUMUL_nIZ1-74" value="Нет" style="edgeLabel;html=1;align=center;verticalAlign=middle;resizable=0;points=[];" vertex="1" connectable="0" parent="_LUyKltJJyNUMUL_nIZ1-70">
          <mxGeometry x="-0.7048" y="1" relative="1" as="geometry">
            <mxPoint x="49" y="-106" as="offset" />
          </mxGeometry>
        </mxCell>
        <mxCell id="_LUyKltJJyNUMUL_nIZ1-96" value="Нет" style="edgeLabel;html=1;align=center;verticalAlign=middle;resizable=0;points=[];" vertex="1" connectable="0" parent="_LUyKltJJyNUMUL_nIZ1-70">
          <mxGeometry x="-0.9517" y="-1" relative="1" as="geometry">
            <mxPoint y="11" as="offset" />
          </mxGeometry>
        </mxCell>
        <mxCell id="_LUyKltJJyNUMUL_nIZ1-88" style="edgeStyle=orthogonalEdgeStyle;rounded=0;orthogonalLoop=1;jettySize=auto;html=1;exitX=0.5;exitY=1;exitDx=0;exitDy=0;entryX=0.5;entryY=0;entryDx=0;entryDy=0;" edge="1" parent="1" source="_LUyKltJJyNUMUL_nIZ1-65" target="_LUyKltJJyNUMUL_nIZ1-87">
          <mxGeometry relative="1" as="geometry" />
        </mxCell>
        <mxCell id="_LUyKltJJyNUMUL_nIZ1-90" value="Да" style="edgeLabel;html=1;align=center;verticalAlign=middle;resizable=0;points=[];" vertex="1" connectable="0" parent="_LUyKltJJyNUMUL_nIZ1-88">
          <mxGeometry x="-0.42" relative="1" as="geometry">
            <mxPoint as="offset" />
          </mxGeometry>
        </mxCell>
        <mxCell id="_LUyKltJJyNUMUL_nIZ1-65" value="Отрисовка завершилась?" style="rhombus;whiteSpace=wrap;html=1;" vertex="1" parent="1">
          <mxGeometry x="681" y="430" width="146" height="80" as="geometry" />
        </mxCell>
        <mxCell id="_LUyKltJJyNUMUL_nIZ1-78" style="edgeStyle=orthogonalEdgeStyle;rounded=0;orthogonalLoop=1;jettySize=auto;html=1;exitX=0.5;exitY=1;exitDx=0;exitDy=0;entryX=0.5;entryY=0;entryDx=0;entryDy=0;" edge="1" parent="1" source="_LUyKltJJyNUMUL_nIZ1-76" target="_LUyKltJJyNUMUL_nIZ1-80">
          <mxGeometry relative="1" as="geometry">
            <Array as="points">
              <mxPoint x="631" y="350" />
              <mxPoint x="631" y="376" />
            </Array>
          </mxGeometry>
        </mxCell>
        <mxCell id="_LUyKltJJyNUMUL_nIZ1-76" value="Отрисовка движущегося элемента" style="rounded=0;whiteSpace=wrap;html=1;" vertex="1" parent="1">
          <mxGeometry x="564" y="297.5" width="120" height="52.5" as="geometry" />
        </mxCell>
        <mxCell id="_LUyKltJJyNUMUL_nIZ1-82" style="edgeStyle=orthogonalEdgeStyle;rounded=0;orthogonalLoop=1;jettySize=auto;html=1;exitX=1;exitY=0.5;exitDx=0;exitDy=0;entryX=0.5;entryY=0;entryDx=0;entryDy=0;" edge="1" parent="1" source="_LUyKltJJyNUMUL_nIZ1-80" target="_LUyKltJJyNUMUL_nIZ1-9">
          <mxGeometry relative="1" as="geometry">
            <Array as="points">
              <mxPoint x="704" y="416" />
              <mxPoint x="704" y="450" />
              <mxPoint x="654" y="450" />
              <mxPoint x="654" y="600" />
              <mxPoint x="418" y="600" />
            </Array>
          </mxGeometry>
        </mxCell>
        <mxCell id="_LUyKltJJyNUMUL_nIZ1-80" value="Отрисовка завершилась?" style="rhombus;whiteSpace=wrap;html=1;" vertex="1" parent="1">
          <mxGeometry x="564" y="376.25" width="133" height="80" as="geometry" />
        </mxCell>
        <mxCell id="_LUyKltJJyNUMUL_nIZ1-85" style="edgeStyle=orthogonalEdgeStyle;rounded=0;orthogonalLoop=1;jettySize=auto;html=1;exitX=0.5;exitY=1;exitDx=0;exitDy=0;entryX=0.5;entryY=0;entryDx=0;entryDy=0;" edge="1" parent="1" source="_LUyKltJJyNUMUL_nIZ1-83" target="_LUyKltJJyNUMUL_nIZ1-9">
          <mxGeometry relative="1" as="geometry">
            <mxPoint x="567.2" y="600" as="targetPoint" />
            <Array as="points">
              <mxPoint x="574" y="600" />
              <mxPoint x="418" y="600" />
            </Array>
          </mxGeometry>
        </mxCell>
        <mxCell id="_LUyKltJJyNUMUL_nIZ1-83" value="Флаг ввода" style="rounded=0;whiteSpace=wrap;html=1;" vertex="1" parent="1">
          <mxGeometry x="514" y="562.5" width="120" height="20" as="geometry" />
        </mxCell>
        <mxCell id="_LUyKltJJyNUMUL_nIZ1-84" style="edgeStyle=orthogonalEdgeStyle;rounded=0;orthogonalLoop=1;jettySize=auto;html=1;exitX=0.5;exitY=1;exitDx=0;exitDy=0;" edge="1" parent="1" source="_LUyKltJJyNUMUL_nIZ1-80">
          <mxGeometry relative="1" as="geometry">
            <mxPoint x="574" y="562" as="targetPoint" />
            <Array as="points">
              <mxPoint x="631" y="540" />
              <mxPoint x="574" y="540" />
            </Array>
          </mxGeometry>
        </mxCell>
        <mxCell id="_LUyKltJJyNUMUL_nIZ1-86" value="Да" style="edgeLabel;html=1;align=center;verticalAlign=middle;resizable=0;points=[];" vertex="1" connectable="0" parent="_LUyKltJJyNUMUL_nIZ1-84">
          <mxGeometry x="-0.4089" y="-2" relative="1" as="geometry">
            <mxPoint x="2" y="-15" as="offset" />
          </mxGeometry>
        </mxCell>
        <mxCell id="_LUyKltJJyNUMUL_nIZ1-89" style="edgeStyle=orthogonalEdgeStyle;rounded=0;orthogonalLoop=1;jettySize=auto;html=1;exitX=0.5;exitY=1;exitDx=0;exitDy=0;entryX=0.5;entryY=0;entryDx=0;entryDy=0;" edge="1" parent="1" source="_LUyKltJJyNUMUL_nIZ1-87" target="_LUyKltJJyNUMUL_nIZ1-9">
          <mxGeometry relative="1" as="geometry">
            <Array as="points">
              <mxPoint x="754" y="600" />
              <mxPoint x="418" y="600" />
            </Array>
          </mxGeometry>
        </mxCell>
        <mxCell id="_LUyKltJJyNUMUL_nIZ1-87" value="Флаг добавления" style="rounded=0;whiteSpace=wrap;html=1;" vertex="1" parent="1">
          <mxGeometry x="694" y="562.5" width="120" height="20" as="geometry" />
        </mxCell>
        <mxCell id="_LUyKltJJyNUMUL_nIZ1-95" style="edgeStyle=orthogonalEdgeStyle;rounded=0;orthogonalLoop=1;jettySize=auto;html=1;exitX=0.5;exitY=1;exitDx=0;exitDy=0;entryX=0.5;entryY=0;entryDx=0;entryDy=0;" edge="1" parent="1" source="_LUyKltJJyNUMUL_nIZ1-91" target="_LUyKltJJyNUMUL_nIZ1-94">
          <mxGeometry relative="1" as="geometry" />
        </mxCell>
        <mxCell id="_LUyKltJJyNUMUL_nIZ1-91" value="Проверка поля на сдвиг" style="rounded=0;whiteSpace=wrap;html=1;" vertex="1" parent="1">
          <mxGeometry x="384" y="301.25" width="120" height="52.5" as="geometry" />
        </mxCell>
        <mxCell id="_LUyKltJJyNUMUL_nIZ1-98" style="edgeStyle=orthogonalEdgeStyle;rounded=0;orthogonalLoop=1;jettySize=auto;html=1;exitX=1;exitY=0.5;exitDx=0;exitDy=0;entryX=0.5;entryY=0;entryDx=0;entryDy=0;" edge="1" parent="1" source="_LUyKltJJyNUMUL_nIZ1-94" target="_LUyKltJJyNUMUL_nIZ1-97">
          <mxGeometry relative="1" as="geometry" />
        </mxCell>
        <mxCell id="_LUyKltJJyNUMUL_nIZ1-99" value="Нет" style="edgeLabel;html=1;align=center;verticalAlign=middle;resizable=0;points=[];" vertex="1" connectable="0" parent="_LUyKltJJyNUMUL_nIZ1-98">
          <mxGeometry x="0.0318" y="1" relative="1" as="geometry">
            <mxPoint y="-15" as="offset" />
          </mxGeometry>
        </mxCell>
        <mxCell id="_LUyKltJJyNUMUL_nIZ1-101" style="edgeStyle=orthogonalEdgeStyle;rounded=0;orthogonalLoop=1;jettySize=auto;html=1;exitX=0.5;exitY=1;exitDx=0;exitDy=0;entryX=0.5;entryY=0;entryDx=0;entryDy=0;" edge="1" parent="1" source="_LUyKltJJyNUMUL_nIZ1-94" target="_LUyKltJJyNUMUL_nIZ1-100">
          <mxGeometry relative="1" as="geometry">
            <Array as="points">
              <mxPoint x="444" y="520" />
              <mxPoint x="444" y="520" />
            </Array>
          </mxGeometry>
        </mxCell>
        <mxCell id="_LUyKltJJyNUMUL_nIZ1-102" value="Да" style="edgeLabel;html=1;align=center;verticalAlign=middle;resizable=0;points=[];" vertex="1" connectable="0" parent="_LUyKltJJyNUMUL_nIZ1-101">
          <mxGeometry x="-0.056" y="-2" relative="1" as="geometry">
            <mxPoint x="12" y="-22" as="offset" />
          </mxGeometry>
        </mxCell>
        <mxCell id="_LUyKltJJyNUMUL_nIZ1-94" value="Есть перемещаемые элементы" style="rhombus;whiteSpace=wrap;html=1;" vertex="1" parent="1">
          <mxGeometry x="354" y="370" width="180" height="92.5" as="geometry" />
        </mxCell>
        <mxCell id="_LUyKltJJyNUMUL_nIZ1-103" style="edgeStyle=orthogonalEdgeStyle;rounded=0;orthogonalLoop=1;jettySize=auto;html=1;exitX=0;exitY=0.5;exitDx=0;exitDy=0;entryX=0.5;entryY=0;entryDx=0;entryDy=0;" edge="1" parent="1" source="_LUyKltJJyNUMUL_nIZ1-97" target="_LUyKltJJyNUMUL_nIZ1-100">
          <mxGeometry relative="1" as="geometry">
            <Array as="points">
              <mxPoint x="444" y="470" />
            </Array>
          </mxGeometry>
        </mxCell>
        <mxCell id="_LUyKltJJyNUMUL_nIZ1-108" style="edgeStyle=orthogonalEdgeStyle;rounded=0;orthogonalLoop=1;jettySize=auto;html=1;exitX=0.5;exitY=1;exitDx=0;exitDy=0;" edge="1" parent="1" source="_LUyKltJJyNUMUL_nIZ1-97">
          <mxGeometry relative="1" as="geometry">
            <mxPoint x="574" y="562" as="targetPoint" />
            <Array as="points">
              <mxPoint x="549" y="540" />
              <mxPoint x="574" y="540" />
              <mxPoint x="574" y="562" />
            </Array>
          </mxGeometry>
        </mxCell>
        <mxCell id="_LUyKltJJyNUMUL_nIZ1-109" value="Нет" style="edgeLabel;html=1;align=center;verticalAlign=middle;resizable=0;points=[];" vertex="1" connectable="0" parent="_LUyKltJJyNUMUL_nIZ1-108">
          <mxGeometry x="-0.6921" relative="1" as="geometry">
            <mxPoint as="offset" />
          </mxGeometry>
        </mxCell>
        <mxCell id="_LUyKltJJyNUMUL_nIZ1-97" value="&lt;div&gt;Есть складывае-&lt;/div&gt;&lt;div&gt;мые элементы?&lt;/div&gt;" style="rhombus;whiteSpace=wrap;html=1;" vertex="1" parent="1">
          <mxGeometry x="474" y="430" width="150" height="80" as="geometry" />
        </mxCell>
        <mxCell id="_LUyKltJJyNUMUL_nIZ1-100" value="Флаг отрисовки движения" style="rounded=0;whiteSpace=wrap;html=1;" vertex="1" parent="1">
          <mxGeometry x="384" y="547.5" width="120" height="35" as="geometry" />
        </mxCell>
        <mxCell id="_LUyKltJJyNUMUL_nIZ1-111" style="edgeStyle=orthogonalEdgeStyle;rounded=0;orthogonalLoop=1;jettySize=auto;html=1;exitX=0;exitY=0.5;exitDx=0;exitDy=0;" edge="1" parent="1" source="_LUyKltJJyNUMUL_nIZ1-110" target="_LUyKltJJyNUMUL_nIZ1-40">
          <mxGeometry relative="1" as="geometry">
            <Array as="points">
              <mxPoint x="54" y="400" />
              <mxPoint x="54" y="690" />
              <mxPoint x="418" y="690" />
            </Array>
          </mxGeometry>
        </mxCell>
        <mxCell id="_LUyKltJJyNUMUL_nIZ1-112" value="Да" style="edgeLabel;html=1;align=center;verticalAlign=middle;resizable=0;points=[];" vertex="1" connectable="0" parent="_LUyKltJJyNUMUL_nIZ1-111">
          <mxGeometry x="-0.9794" relative="1" as="geometry">
            <mxPoint x="-3" y="-20" as="offset" />
          </mxGeometry>
        </mxCell>
        <mxCell id="_LUyKltJJyNUMUL_nIZ1-121" style="edgeStyle=orthogonalEdgeStyle;rounded=0;orthogonalLoop=1;jettySize=auto;html=1;exitX=1;exitY=0.5;exitDx=0;exitDy=0;entryX=0.5;entryY=0;entryDx=0;entryDy=0;" edge="1" parent="1" source="_LUyKltJJyNUMUL_nIZ1-110" target="_LUyKltJJyNUMUL_nIZ1-114">
          <mxGeometry relative="1" as="geometry">
            <Array as="points">
              <mxPoint x="244" y="400" />
              <mxPoint x="244" y="450" />
              <mxPoint x="159" y="450" />
            </Array>
          </mxGeometry>
        </mxCell>
        <mxCell id="_LUyKltJJyNUMUL_nIZ1-122" value="Нет" style="edgeLabel;html=1;align=center;verticalAlign=middle;resizable=0;points=[];" vertex="1" connectable="0" parent="_LUyKltJJyNUMUL_nIZ1-121">
          <mxGeometry x="-0.8721" y="-1" relative="1" as="geometry">
            <mxPoint y="-11" as="offset" />
          </mxGeometry>
        </mxCell>
        <mxCell id="_LUyKltJJyNUMUL_nIZ1-110" value="Игрок запросил выход?" style="rhombus;whiteSpace=wrap;html=1;" vertex="1" parent="1">
          <mxGeometry x="94" y="360" width="130" height="80" as="geometry" />
        </mxCell>
        <mxCell id="_LUyKltJJyNUMUL_nIZ1-114" value="&lt;div&gt;Игрок&amp;nbsp;&lt;/div&gt;&lt;div&gt;запросил&amp;nbsp;&lt;/div&gt;&lt;div&gt;сдвиг?&lt;/div&gt;" style="rhombus;whiteSpace=wrap;html=1;" vertex="1" parent="1">
          <mxGeometry x="104" y="462.5" width="110" height="80" as="geometry" />
        </mxCell>
        <mxCell id="_LUyKltJJyNUMUL_nIZ1-118" style="edgeStyle=orthogonalEdgeStyle;rounded=0;orthogonalLoop=1;jettySize=auto;html=1;exitX=0.5;exitY=1;exitDx=0;exitDy=0;entryX=0.5;entryY=0;entryDx=0;entryDy=0;" edge="1" parent="1" source="_LUyKltJJyNUMUL_nIZ1-116" target="_LUyKltJJyNUMUL_nIZ1-9">
          <mxGeometry relative="1" as="geometry">
            <Array as="points">
              <mxPoint x="89" y="600" />
              <mxPoint x="418" y="600" />
            </Array>
          </mxGeometry>
        </mxCell>
        <mxCell id="_LUyKltJJyNUMUL_nIZ1-116" value="&lt;div&gt;Флаг&lt;/div&gt;&lt;div&gt;сдвига&lt;br&gt;&lt;/div&gt;" style="rounded=0;whiteSpace=wrap;html=1;" vertex="1" parent="1">
          <mxGeometry x="64" y="557.5" width="50" height="32.5" as="geometry" />
        </mxCell>
        <mxCell id="_LUyKltJJyNUMUL_nIZ1-117" style="edgeStyle=orthogonalEdgeStyle;rounded=0;orthogonalLoop=1;jettySize=auto;html=1;exitX=0;exitY=0.5;exitDx=0;exitDy=0;entryX=0.5;entryY=0;entryDx=0;entryDy=0;" edge="1" parent="1" source="_LUyKltJJyNUMUL_nIZ1-114" target="_LUyKltJJyNUMUL_nIZ1-116">
          <mxGeometry relative="1" as="geometry">
            <Array as="points">
              <mxPoint x="89" y="502" />
            </Array>
          </mxGeometry>
        </mxCell>
        <mxCell id="_LUyKltJJyNUMUL_nIZ1-119" value="Да" style="edgeLabel;html=1;align=center;verticalAlign=middle;resizable=0;points=[];" vertex="1" connectable="0" parent="_LUyKltJJyNUMUL_nIZ1-117">
          <mxGeometry x="-0.7262" relative="1" as="geometry">
            <mxPoint y="-16" as="offset" />
          </mxGeometry>
        </mxCell>
      </root>
    </mxGraphModel>
  </diagram>
</mxfile>
